<svg height="766" width="720" xmlns="http://www.w3.org/2000/svg">
<rect height="766" fill="#555" width="720"></rect>
<text fill="#7f7" font-family="Courier New" font-size="12" xml:space="preserve">
<tspan x="10" y="26">19 megabytes installed</tspan>
<tspan x="10" y="42"></tspan>
<tspan x="10" y="58">node_modules</tspan>
<tspan x="10" y="74">└─┬ cucumber@1.3.2 </tspan>
<tspan x="10" y="90">  ├─┬ camel-case@3.0.0 </tspan>
<tspan x="10" y="106">  │ ├─┬ no-case@2.3.1 </tspan>
<tspan x="10" y="122">  │ │ └── lower-case@1.1.4 </tspan>
<tspan x="10" y="138">  │ └── upper-case@1.1.3 </tspan>
<tspan x="10" y="154">  ├─┬ cli-table@0.3.1 </tspan>
<tspan x="10" y="170">  │ └── colors@1.0.3 </tspan>
<tspan x="10" y="186">  ├── co@4.6.0 </tspan>
<tspan x="10" y="202">  ├── colors@1.1.2 </tspan>
<tspan x="10" y="218">  ├─┬ commander@2.9.0 </tspan>
<tspan x="10" y="234">  │ └── graceful-readlink@1.0.1 </tspan>
<tspan x="10" y="250">  ├─┬ duration@0.2.0 </tspan>
<tspan x="10" y="266">  │ ├── d@0.1.1 </tspan>
<tspan x="10" y="282">  │ └─┬ es5-ext@0.10.15 </tspan>
<tspan x="10" y="298">  │   ├─┬ es6-iterator@2.0.1 </tspan>
<tspan x="10" y="314">  │   │ └── d@1.0.0 </tspan>
<tspan x="10" y="330">  │   └─┬ es6-symbol@3.1.1 </tspan>
<tspan x="10" y="346">  │     └── d@1.0.0 </tspan>
<tspan x="10" y="362">  ├─┬ figures@1.7.0 </tspan>
<tspan x="10" y="378">  │ ├── escape-string-regexp@1.0.5 </tspan>
<tspan x="10" y="394">  │ └── object-assign@4.1.1 </tspan>
<tspan x="10" y="410">  ├── gherkin@4.1.1 </tspan>
<tspan x="10" y="426">  ├─┬ glob@7.1.1 </tspan>
<tspan x="10" y="442">  │ ├── fs.realpath@1.0.0 </tspan>
<tspan x="10" y="458">  │ ├─┬ inflight@1.0.6 </tspan>
<tspan x="10" y="474">  │ │ └── wrappy@1.0.2 </tspan>
<tspan x="10" y="490">  │ ├── inherits@2.0.3 </tspan>
<tspan x="10" y="506">  │ ├─┬ minimatch@3.0.3 </tspan>
<tspan x="10" y="522">  │ │ └─┬ brace-expansion@1.1.7 </tspan>
<tspan x="10" y="538">  │ │   ├── balanced-match@0.4.2 </tspan>
<tspan x="10" y="554">  │ │   └── concat-map@0.0.1 </tspan>
<tspan x="10" y="570">  │ ├── once@1.4.0 </tspan>
<tspan x="10" y="586">  │ └── path-is-absolute@1.0.1 </tspan>
<tspan x="10" y="602">  ├── is-generator@1.0.3 </tspan>
<tspan x="10" y="618">  ├── lodash@4.17.4 </tspan>
<tspan x="10" y="634">  ├── stack-chain@1.3.7 </tspan>
<tspan x="10" y="650">  └─┬ stacktrace-js@1.3.1 </tspan>
<tspan x="10" y="666">    ├─┬ error-stack-parser@1.3.6 </tspan>
<tspan x="10" y="682">    │ └── stackframe@0.3.1 </tspan>
<tspan x="10" y="698">    ├─┬ stack-generator@1.1.0 </tspan>
<tspan x="10" y="714">    │ └── stackframe@1.0.2 </tspan>
<tspan x="10" y="730">    └─┬ stacktrace-gps@2.4.4 </tspan>
<tspan x="10" y="746">      └── source-map@0.5.6</tspan>
</text>
</svg>
